<?xml version="1.0" encoding="utf-8"?>
<!-- Generator: Adobe Illustrator 26.0.2, SVG Export Plug-In . SVG Version: 6.00 Build 0)  -->
<svg version="1.1" id="Layer_1" xmlns="http://www.w3.org/2000/svg" xmlns:xlink="http://www.w3.org/1999/xlink" x="0px" y="0px"
	 viewBox="0 0 229.8 102" style="enable-background:new 0 0 229.8 102;" xml:space="preserve">
<style type="text/css">
	.st0{fill:#231F20;}
	.st1{fill:#FFFFFF;}
	.st2{fill:none;}
	.st3{font-family:'AloeveraRegular';}
	.st4{font-size:40px;}
</style>
<rect class="st0" width="229.8" height="102"/>
<g id="Layer_2_00000114048205428346055860000018410815252521932418_">
	<g id="Layer_1-2_00000150818556129758316990000004033369678706183569_">
		<polygon class="st1" points="74.4,59.9 66.4,55.2 64.3,68.5 62.4,55.3 54.7,60.4 59.4,52.5 50.3,50.7 59.3,48.4 54.1,40.7 
			62.1,45.4 64.3,32.1 66.2,45.3 73.9,40.2 69.1,48.1 78.2,49.9 69.2,52.2 		"/>
	</g>
</g>
<g id="Layer_2_00000039829090054938559500000008320645582541949609_">
	<g id="Layer_1-2_00000040532804131341761120000016514542065783431600_">
		<polygon class="st1" points="183.1,59.9 175.2,55.2 173,68.5 171.1,55.3 163.4,60.4 168.1,52.5 159,50.7 168,48.4 162.9,40.7 
			170.8,45.4 173,32.1 174.9,45.3 182.6,40.2 177.8,48.1 186.9,49.9 178,52.2 		"/>
	</g>
</g>
<rect x="82" y="19.7" class="st2" width="75.5" height="62.5"/>
<text transform="matrix(1 0 0 1 87.7083 64.7032)" class="st1 st3 st4">VM</text>
<g id="Layer_2_00000075151293837459665350000002331647101310812846_">
	<g id="Layer_1-2_00000080198285578557606180000002611877128223942553_">
		<polygon class="st1" points="74.4,-42.3 66.4,-47 64.3,-33.7 62.4,-46.9 54.7,-41.7 59.4,-49.7 50.3,-51.5 59.3,-53.8 54.1,-61.4 
			62.1,-56.7 64.3,-70 66.2,-56.8 73.9,-62 69.1,-54 78.2,-52.2 69.2,-49.9 		"/>
	</g>
</g>
<g id="Layer_2_00000033343347913769948050000003718018175511490705_">
	<g id="Layer_1-2_00000132773725446560530760000005996928015798505639_">
		<polygon class="st1" points="183.1,-42.3 175.2,-47 173,-33.7 171.1,-46.9 163.4,-41.7 168.1,-49.7 159,-51.5 168,-53.8 
			162.9,-61.4 170.8,-56.7 173,-70 174.9,-56.8 182.6,-62 177.8,-54 186.9,-52.2 178,-49.9 		"/>
	</g>
</g>
<rect x="82" y="-82.4" class="st2" width="75.5" height="62.5"/>
<text transform="matrix(1 0 0 1 87.7083 -37.4535)" class="st1 st3 st4">VM</text>
</svg>
