<svg xmlns="http://www.w3.org/2000/svg" viewBox="0 0 136.61 62.54"><defs><style>.cls-1,.cls-2{fill:#fff;}.cls-2{font-size:40px;font-family:AloeveraRegular, Aloevera;}</style></defs><g id="Layer_2" data-name="Layer 2"><g id="Layer_1-2" data-name="Layer 1"><g id="Layer_2-2" data-name="Layer 2"><g id="Layer_1-2-2" data-name="Layer 1-2"><polygon class="cls-1" points="24.07 40.17 16.12 35.44 13.95 48.74 12.04 35.55 4.35 40.7 9.08 32.74 0 30.95 8.97 28.67 3.81 20.98 11.77 25.71 13.95 12.41 15.85 25.6 23.54 20.45 18.81 28.41 27.89 30.2 18.92 32.48 24.07 40.17"/></g></g><g id="Layer_2-3" data-name="Layer 2"><g id="Layer_1-2-3" data-name="Layer 1-2"><polygon class="cls-1" points="132.79 40.17 124.84 35.44 122.67 48.74 120.76 35.55 113.07 40.7 117.8 32.74 108.72 30.95 117.69 28.67 112.54 20.98 120.5 25.71 122.67 12.41 124.57 25.6 132.26 20.45 127.53 28.41 136.61 30.2 127.64 32.48 132.79 40.17"/></g></g><text class="cls-2" transform="translate(37.39 44.97)">VM</text></g></g></svg>